<?xml version="1.0" encoding="UTF-8" standalone="no"?>
<svg
   version="1.0"
   width="97.000000pt"
   height="60.000000pt"
   viewBox="0 0 97.000000 60.000000"
   preserveAspectRatio="xMidYMid meet"
   id="svg6"
   xmlns="http://www.w3.org/2000/svg"
   xmlns:svg="http://www.w3.org/2000/svg">
  <defs
     id="defs6" />
  <g
     transform="translate(0.000000,60.000000) scale(0.100000,-0.100000)"
     fill="#000000"
     stroke="none"
     id="g6">
    <path
       d="M53 590 c-47 -19 -53 -52 -53 -290 0 -231 6 -269 46 -284 9 -4 208 -6 442 -6 l426 0 26 25 25 25 0 241 0 241 -33 29 -32 29 -413 -1 c-226 0 -422 -4 -434 -9z m872 -40 c19 -20 20 -32 20 -250 0 -225 0 -230 -23 -252 l-23 -23 -401 -3 c-276 -2 -411 1 -429 8 -44 19 -49 45 -49 270 0 216 5 250 41 266 11 5 205 8 431 7 400 -3 413 -3 433 -23z"
       id="path1" />
    <path
       d="M136 469 c-7 -19 -17 -44 -21 -57 -6 -22 -5 -22 14 -10 16 10 25 10 40 1 28 -17 31 -7 12 42 -23 60 -29 63 -45 24z m28 -24 c3 -9 0 -15 -9 -15 -9 0 -12 6 -9 15 4 8 7 15 9 15 2 0 5 -7 9 -15z"
       id="path2" />
    <path
       d="M117 313 c-26 -13 -47 -48 -47 -78 0 -7 12 -27 26 -44 55 -66 157 -15 139 69 -12 54 -68 80 -118 53z"
       id="path3" />
    <path
       d="M290 245 c0 -12 16 -15 80 -15 64 0 80 3 80 15 0 12 -16 15 -80 15 -64 0 -80 -3 -80 -15z"
       id="path4" />
    <path
       d="M510 245 c0 -12 16 -15 80 -15 64 0 80 3 80 15 0 12 -16 15 -80 15 -64 0 -80 -3 -80 -15z"
       id="path5" />
    <path
       d="M720 245 c0 -12 16 -15 85 -15 69 0 85 3 85 15 0 12 -16 15 -85 15 -69 0 -85 -3 -85 -15z"
       id="path6" />
  </g>
</svg>
