<?xml version="1.0" standalone="no"?>
<!DOCTYPE svg PUBLIC "-//W3C//DTD SVG 20010904//EN"
 "http://www.w3.org/TR/2001/REC-SVG-20010904/DTD/svg10.dtd">
<svg version="1.0" xmlns="http://www.w3.org/2000/svg"
 width="97.000000pt" height="60.000000pt" viewBox="0 0 97.000000 60.000000"
 preserveAspectRatio="xMidYMid meet">

<g transform="translate(0.000000,60.000000) scale(0.100000,-0.100000)"
fill="#000000" stroke="none">
<path d="M53 590 c-47 -19 -53 -52 -53 -290 0 -231 6 -269 46 -284 9 -4 208
-6 442 -6 l426 0 26 25 25 25 3 225 c3 246 -3 280 -54 304 -30 13 -827 15
-861 1z m872 -40 c19 -19 20 -34 23 -229 4 -231 -4 -272 -53 -291 -16 -6 -184
-10 -421 -10 l-396 0 -29 29 -29 29 0 216 c0 222 5 256 41 272 11 5 205 8 431
7 400 -2 413 -3 433 -23z"/>
<path d="M122 448 c3 -55 3 -55 59 -49 6 1 9 20 7 49 -3 45 -4 47 -36 50 l-33
3 3 -53z m48 22 c0 -5 -7 -10 -15 -10 -8 0 -15 5 -15 10 0 6 7 10 15 10 8 0
15 -4 15 -10z m3 -45 c1 -5 -6 -11 -15 -13 -11 -2 -18 3 -18 13 0 17 30 18 33
0z"/>
<path d="M320 298 c-28 -31 -26 -83 5 -113 51 -52 135 -17 135 56 0 52 -27 79
-80 79 -27 0 -45 -6 -60 -22z"/>
<path d="M70 245 c0 -12 16 -15 85 -15 69 0 85 3 85 15 0 12 -16 15 -85 15
-69 0 -85 -3 -85 -15z"/>
<path d="M510 245 c0 -12 16 -15 80 -15 64 0 80 3 80 15 0 12 -16 15 -80 15
-64 0 -80 -3 -80 -15z"/>
<path d="M720 245 c0 -12 16 -15 85 -15 69 0 85 3 85 15 0 12 -16 15 -85 15
-69 0 -85 -3 -85 -15z"/>
</g>
</svg>
