<?xml version="1.0" standalone="no"?>
<!DOCTYPE svg PUBLIC "-//W3C//DTD SVG 20010904//EN"
 "http://www.w3.org/TR/2001/REC-SVG-20010904/DTD/svg10.dtd">
<svg version="1.0" xmlns="http://www.w3.org/2000/svg"
 width="98.000000pt" height="60.000000pt" viewBox="0 0 98.000000 60.000000"
 preserveAspectRatio="xMidYMid meet">

<g transform="translate(0.000000,60.000000) scale(0.100000,-0.100000)"
fill="#000000" stroke="none">
<path d="M47 580 c-43 -34 -49 -75 -45 -307 3 -212 3 -213 28 -238 l26 -25
427 0 c262 0 435 3 446 9 37 20 42 58 39 299 -3 226 -4 232 -26 254 l-23 23
-423 3 c-415 3 -423 2 -449 -18z m880 -35 c22 -25 23 -33 23 -240 0 -230 -5
-256 -49 -275 -18 -7 -153 -10 -430 -8 l-403 3 -19 24 c-17 21 -19 42 -19 256
0 232 0 234 23 252 22 17 50 18 438 16 l414 -2 22 -26z"/>
<path d="M143 493 c-20 -8 -16 -81 5 -91 22 -12 42 -5 42 15 0 13 -3 13 -15 3
-21 -17 -38 -1 -33 31 2 20 8 24 33 21 29 -2 29 -2 11 13 -21 16 -24 16 -43 8z"/>
<path d="M573 318 c-21 -6 -38 -19 -48 -39 -43 -82 65 -160 130 -94 30 30 32
73 5 107 -24 31 -45 37 -87 26z"/>
<path d="M70 245 c0 -12 16 -15 80 -15 64 0 80 3 80 15 0 12 -16 15 -80 15
-64 0 -80 -3 -80 -15z"/>
<path d="M290 245 c0 -12 16 -15 85 -15 69 0 85 3 85 15 0 12 -16 15 -85 15
-69 0 -85 -3 -85 -15z"/>
<path d="M730 245 c0 -12 16 -15 80 -15 64 0 80 3 80 15 0 12 -16 15 -80 15
-64 0 -80 -3 -80 -15z"/>
</g>
</svg>
