<?xml version="1.0" standalone="no"?>
<!DOCTYPE svg PUBLIC "-//W3C//DTD SVG 20010904//EN"
 "http://www.w3.org/TR/2001/REC-SVG-20010904/DTD/svg10.dtd">
<svg version="1.0" xmlns="http://www.w3.org/2000/svg"
 width="97.000000pt" height="60.000000pt" viewBox="0 0 97.000000 60.000000"
 preserveAspectRatio="xMidYMid meet">

<g transform="translate(0.000000,60.000000) scale(0.100000,-0.100000)"
fill="#000000" stroke="none">
<path d="M48 585 c-43 -24 -50 -66 -46 -307 l3 -218 26 -25 25 -26 428 0 c258
1 434 5 445 10 37 20 42 58 39 299 -3 226 -4 232 -26 254 l-23 23 -422 2
c-358 2 -426 0 -449 -12z m862 -20 c34 -11 40 -50 40 -270 0 -212 0 -214 -24
-242 l-24 -28 -416 0 -415 0 -23 23 c-23 22 -23 27 -23 253 l0 231 25 21 c25
22 28 22 434 20 225 -2 416 -5 426 -8z"/>
<path d="M124 486 c-3 -8 -4 -31 -2 -52 2 -31 7 -38 26 -39 47 -3 70 55 36 89
-19 20 -53 21 -60 2z m51 -41 c0 -20 -6 -31 -17 -33 -15 -3 -18 4 -18 33 0 29
3 36 18 33 11 -2 17 -13 17 -33z"/>
<path d="M771 309 c-66 -40 -32 -149 46 -149 71 0 108 81 61 134 -30 34 -68
39 -107 15z"/>
<path d="M80 245 c0 -12 16 -15 80 -15 64 0 80 3 80 15 0 12 -16 15 -80 15
-64 0 -80 -3 -80 -15z"/>
<path d="M290 245 c0 -12 16 -15 85 -15 69 0 85 3 85 15 0 12 -16 15 -85 15
-69 0 -85 -3 -85 -15z"/>
<path d="M510 245 c0 -12 16 -15 85 -15 69 0 85 3 85 15 0 12 -16 15 -85 15
-69 0 -85 -3 -85 -15z"/>
</g>
</svg>
