<?xml version="1.0" standalone="no"?>
<!DOCTYPE svg PUBLIC "-//W3C//DTD SVG 20010904//EN"
 "http://www.w3.org/TR/2001/REC-SVG-20010904/DTD/svg10.dtd">
<svg version="1.0" xmlns="http://www.w3.org/2000/svg"
 width="33.000000pt" height="92.000000pt" viewBox="0 0 33.000000 92.000000"
 preserveAspectRatio="xMidYMid meet">

<g transform="translate(0.000000,92.000000) scale(0.100000,-0.100000)"
fill="#000000" stroke="none">
<path d="M0 807 c0 -75 1 -78 27 -88 64 -24 98 -45 149 -91 68 -63 111 -148
122 -243 l8 -70 13 54 c28 111 -21 212 -177 363 -49 48 -101 101 -116 120
l-26 33 0 -78z"/>
<path d="M0 522 c0 -67 3 -82 15 -82 33 0 122 -55 175 -109 64 -64 98 -138
107 -234 7 -65 18 -59 28 14 14 101 -36 193 -181 334 -52 49 -105 105 -119
124 l-25 35 0 -82z"/>
</g>
</svg>
