<?xml version="1.0" encoding="UTF-8" standalone="no"?>
<svg
   version="1.0"
   width="33pt"
   height="84pt"
   viewBox="0 0 33 84"
   preserveAspectRatio="xMidYMid"
   id="svg2"
   sodipodi:docname="semiquaver_up.svg"
   inkscape:version="1.4 (86a8ad7, 2024-10-11)"
   xmlns:inkscape="http://www.inkscape.org/namespaces/inkscape"
   xmlns:sodipodi="http://sodipodi.sourceforge.net/DTD/sodipodi-0.dtd"
   xmlns="http://www.w3.org/2000/svg"
   xmlns:svg="http://www.w3.org/2000/svg">
  <defs
     id="defs2" />
  <sodipodi:namedview
     id="namedview2"
     pagecolor="#ffffff"
     bordercolor="#000000"
     borderopacity="0.25"
     inkscape:showpageshadow="2"
     inkscape:pageopacity="0.0"
     inkscape:pagecheckerboard="0"
     inkscape:deskcolor="#d1d1d1"
     inkscape:document-units="pt"
     inkscape:zoom="6.6440217"
     inkscape:cx="21.974642"
     inkscape:cy="61.333333"
     inkscape:window-width="1920"
     inkscape:window-height="1017"
     inkscape:window-x="-8"
     inkscape:window-y="-8"
     inkscape:window-maximized="1"
     inkscape:current-layer="svg2" />
  <g
     transform="matrix(0.1,0,0,0.1,0.11288344,-4.7456979)"
     fill="#000000"
     stroke="none"
     id="g2">
    <path
       d="m 0,807 c 0,-75 1,-78 27,-88 64,-24 98,-45 149,-91 68,-63 111,-148 122,-243 l 8,-70 13,54 C 347,480 298,581 142,732 93,780 41,833 26,852 L 0,885 Z"
       id="path1" />
    <path
       d="m 0,522 c 0,-67 3,-82 15,-82 33,0 122,-55 175,-109 64,-64 98,-138 107,-234 7,-65 18,-59 28,14 C 339,212 289,304 144,445 92,494 39,550 25,569 L 0,604 Z"
       id="path2" />
  </g>
</svg>
