<?xml version="1.0" encoding="utf-8"?>
<!-- Generator: Adobe Illustrator 23.0.1, SVG Export Plug-In . SVG Version: 6.00 Build 0)  -->
<svg version="1.1" id="Layer_1" xmlns="http://www.w3.org/2000/svg" xmlns:xlink="http://www.w3.org/1999/xlink" x="0px" y="0px"
	 viewBox="0 0 141.73 283.46" style="enable-background:new 0 0 141.73 283.46;" xml:space="preserve">
<style type="text/css">
	.st0{fill:#010101;stroke:#010101;stroke-width:0.25;stroke-miterlimit:10;}
</style>
<path class="st0" d="M56.15,142.08c0,0,0.38-3.35,1.97-3.93c1.52-0.56,2.24-0.46,2.24-0.46l25.71-0.44c0,0-8.78,17.73-49.27,61.81
	h34.94l0.54-8.42c0,0,0-2.51-3.58-5.02l25.26-29.56l0.72,43h11.47v4.84H94.5v12.9c0,0,0.72,9.5,11.65,8.6v6.79l-44.84,0.2v-5.38
	c0,0,12.03-1.97,11.22-9.85v-5.02c0,0,0.73-7.7-8.45-7.88l-33.75,0.54c0,0-1.44-1.89,0.02-4.12
	C37.54,189.74,54.9,170.3,56.15,142.08z"/>
<path class="st0" d="M56.22,83.33c0,0,26.69,1.59,27.93-17.5c1.24-19.09-11.31-23.34-11.31-23.34s-5.66-3.71-14.32,0
	c-8.66,3.71-3.71,8.13-3.71,8.13s11.49,13.44,0.35,18.92s-15.38,0.35-15.38,0.35s-14.85-16.44,9.9-27.4s44.73,2.3,44.73,2.3
	s20.86,14.14,1.24,32.53c0,0-2.89,2.42-6.72,4.6c0,0,14.32,9.02,17.32,23.87c0,0,4.77,15.03-15.56,24.4c0,0-7.6,4.42-27.58,3.71
	c0,0-22.27,0.18-27.75-15.2s8.13-17.68,8.13-17.68s16.97-1.24,15.03,13.61c0,0,0,1.77-2.65,7.96s5.66,8.31,5.66,8.31
	s18.39,3.18,22.8-11.31s-3.36-23.51-3.36-23.51s-8.84-11.31-25.1-9.02L56.22,83.33z"/>
</svg>
